<mxfile host="app.diagrams.net" modified="2024-01-04T21:11:59.399Z" agent="Mozilla/5.0 (Windows NT 10.0; Win64; x64; rv:121.0) Gecko/20100101 Firefox/121.0" etag="NwIY1QnTbeOjHIj6oaMo" version="22.1.16" type="device">
  <diagram name="PÃ¡gina-1" id="G-wZrI5jkuvvGveaa_p5">
    <mxGraphModel dx="1194" dy="716" grid="1" gridSize="10" guides="1" tooltips="1" connect="1" arrows="1" fold="1" page="1" pageScale="1" pageWidth="827" pageHeight="1169" math="0" shadow="0">
      <root>
        <mxCell id="0" />
        <mxCell id="1" parent="0" />
        <mxCell id="MMhZ7FCfE5tmJCxdhU5A-20" value="" style="rounded=0;whiteSpace=wrap;html=1;strokeWidth=4;dashed=1;" vertex="1" parent="1">
          <mxGeometry x="980" y="330" width="300" height="225" as="geometry" />
        </mxCell>
        <mxCell id="MMhZ7FCfE5tmJCxdhU5A-29" value="" style="rounded=0;whiteSpace=wrap;html=1;strokeWidth=4;" vertex="1" parent="1">
          <mxGeometry x="1012" y="344.5" width="240" height="172.5" as="geometry" />
        </mxCell>
        <mxCell id="MMhZ7FCfE5tmJCxdhU5A-19" value="" style="rounded=0;whiteSpace=wrap;html=1;strokeWidth=4;dashed=1;" vertex="1" parent="1">
          <mxGeometry x="980" y="70" width="300" height="230" as="geometry" />
        </mxCell>
        <mxCell id="MMhZ7FCfE5tmJCxdhU5A-27" value="" style="rounded=0;whiteSpace=wrap;html=1;strokeWidth=4;" vertex="1" parent="1">
          <mxGeometry x="1010" y="87.5" width="240" height="172.5" as="geometry" />
        </mxCell>
        <mxCell id="MMhZ7FCfE5tmJCxdhU5A-1" value="" style="rounded=0;whiteSpace=wrap;html=1;strokeWidth=4;" vertex="1" parent="1">
          <mxGeometry x="100" y="170" width="120" height="60" as="geometry" />
        </mxCell>
        <mxCell id="MMhZ7FCfE5tmJCxdhU5A-2" value="Ingress Line Card" style="text;html=1;strokeColor=none;fillColor=none;align=center;verticalAlign=middle;whiteSpace=wrap;rounded=0;fontSize=16;fontStyle=1" vertex="1" parent="1">
          <mxGeometry x="110" y="185" width="100" height="30" as="geometry" />
        </mxCell>
        <mxCell id="MMhZ7FCfE5tmJCxdhU5A-3" value="" style="rounded=0;whiteSpace=wrap;html=1;strokeWidth=4;" vertex="1" parent="1">
          <mxGeometry x="100" y="375" width="120" height="60" as="geometry" />
        </mxCell>
        <mxCell id="MMhZ7FCfE5tmJCxdhU5A-4" value="Egress Line Card" style="text;html=1;strokeColor=none;fillColor=none;align=center;verticalAlign=middle;whiteSpace=wrap;rounded=0;fontSize=16;fontStyle=1" vertex="1" parent="1">
          <mxGeometry x="110" y="390" width="100" height="30" as="geometry" />
        </mxCell>
        <mxCell id="MMhZ7FCfE5tmJCxdhU5A-5" value="" style="rounded=0;whiteSpace=wrap;html=1;strokeWidth=4;" vertex="1" parent="1">
          <mxGeometry x="280" y="70" width="120" height="485" as="geometry" />
        </mxCell>
        <mxCell id="MMhZ7FCfE5tmJCxdhU5A-6" value="SWITCH FABRIC" style="text;html=1;strokeColor=none;fillColor=none;align=center;verticalAlign=middle;whiteSpace=wrap;rounded=0;fontSize=16;fontStyle=1;rotation=-90;" vertex="1" parent="1">
          <mxGeometry x="255" y="280" width="170" height="30" as="geometry" />
        </mxCell>
        <mxCell id="MMhZ7FCfE5tmJCxdhU5A-7" value="" style="rounded=0;whiteSpace=wrap;html=1;strokeWidth=4;dashed=1;" vertex="1" parent="1">
          <mxGeometry x="436" y="70" width="300" height="485" as="geometry" />
        </mxCell>
        <mxCell id="MMhZ7FCfE5tmJCxdhU5A-8" value="" style="rounded=0;whiteSpace=wrap;html=1;strokeWidth=4;" vertex="1" parent="1">
          <mxGeometry x="475" y="97.5" width="230" height="430" as="geometry" />
        </mxCell>
        <mxCell id="MMhZ7FCfE5tmJCxdhU5A-9" value="" style="rounded=0;whiteSpace=wrap;html=1;strokeWidth=4;fillColor=#647687;fontColor=#ffffff;strokeColor=#314354;" vertex="1" parent="1">
          <mxGeometry x="530" y="282.5" width="120" height="60" as="geometry" />
        </mxCell>
        <mxCell id="MMhZ7FCfE5tmJCxdhU5A-10" value="CEF" style="text;html=1;strokeColor=none;fillColor=none;align=center;verticalAlign=middle;whiteSpace=wrap;rounded=0;fontSize=16;fontStyle=1" vertex="1" parent="1">
          <mxGeometry x="540" y="297.5" width="100" height="30" as="geometry" />
        </mxCell>
        <mxCell id="MMhZ7FCfE5tmJCxdhU5A-11" value="FORWARDING ENGINE" style="text;html=1;strokeColor=none;fillColor=none;align=center;verticalAlign=middle;whiteSpace=wrap;rounded=0;fontSize=16;fontStyle=1" vertex="1" parent="1">
          <mxGeometry x="1040" y="356" width="190" height="30" as="geometry" />
        </mxCell>
        <mxCell id="MMhZ7FCfE5tmJCxdhU5A-12" value="ROUTE PROCESSOR ENGINE" style="text;html=1;strokeColor=none;fillColor=none;align=center;verticalAlign=middle;whiteSpace=wrap;rounded=0;fontSize=16;fontStyle=1" vertex="1" parent="1">
          <mxGeometry x="490" y="390" width="190" height="30" as="geometry" />
        </mxCell>
        <mxCell id="MMhZ7FCfE5tmJCxdhU5A-13" value="" style="endArrow=classic;html=1;rounded=0;strokeWidth=4;fillColor=#647687;strokeColor=#314354;" edge="1" parent="1">
          <mxGeometry width="50" height="50" relative="1" as="geometry">
            <mxPoint x="224" y="404.5" as="sourcePoint" />
            <mxPoint x="274" y="404.5" as="targetPoint" />
          </mxGeometry>
        </mxCell>
        <mxCell id="MMhZ7FCfE5tmJCxdhU5A-14" value="" style="endArrow=classic;html=1;rounded=0;strokeWidth=4;fillColor=#647687;strokeColor=#314354;" edge="1" parent="1">
          <mxGeometry width="50" height="50" relative="1" as="geometry">
            <mxPoint x="226" y="198.5" as="sourcePoint" />
            <mxPoint x="276" y="198.5" as="targetPoint" />
          </mxGeometry>
        </mxCell>
        <mxCell id="MMhZ7FCfE5tmJCxdhU5A-15" value="" style="endArrow=classic;html=1;rounded=0;strokeWidth=4;fillColor=#647687;strokeColor=#314354;" edge="1" parent="1">
          <mxGeometry width="50" height="50" relative="1" as="geometry">
            <mxPoint x="400" y="200" as="sourcePoint" />
            <mxPoint x="470" y="200" as="targetPoint" />
          </mxGeometry>
        </mxCell>
        <mxCell id="MMhZ7FCfE5tmJCxdhU5A-16" value="" style="endArrow=classic;html=1;rounded=0;strokeWidth=4;fillColor=#647687;strokeColor=#314354;" edge="1" parent="1">
          <mxGeometry width="50" height="50" relative="1" as="geometry">
            <mxPoint x="400" y="404.5" as="sourcePoint" />
            <mxPoint x="470" y="404.5" as="targetPoint" />
          </mxGeometry>
        </mxCell>
        <mxCell id="MMhZ7FCfE5tmJCxdhU5A-18" value="" style="verticalLabelPosition=bottom;verticalAlign=top;html=1;shape=mxgraph.basic.x;fillColor=#fad9d5;strokeColor=#ae4132;" vertex="1" parent="1">
          <mxGeometry x="800" y="271.25" width="60" height="47.5" as="geometry" />
        </mxCell>
        <mxCell id="MMhZ7FCfE5tmJCxdhU5A-21" value="" style="rounded=0;whiteSpace=wrap;html=1;strokeWidth=4;fillColor=#647687;fontColor=#ffffff;strokeColor=#314354;" vertex="1" parent="1">
          <mxGeometry x="1070" y="185" width="120" height="60" as="geometry" />
        </mxCell>
        <mxCell id="MMhZ7FCfE5tmJCxdhU5A-22" value="CEF" style="text;html=1;strokeColor=none;fillColor=none;align=center;verticalAlign=middle;whiteSpace=wrap;rounded=0;fontSize=16;fontStyle=1" vertex="1" parent="1">
          <mxGeometry x="1080" y="200" width="100" height="30" as="geometry" />
        </mxCell>
        <mxCell id="MMhZ7FCfE5tmJCxdhU5A-23" value="" style="rounded=0;whiteSpace=wrap;html=1;strokeWidth=4;fillColor=#647687;fontColor=#ffffff;strokeColor=#314354;" vertex="1" parent="1">
          <mxGeometry x="1070" y="437.5" width="120" height="60" as="geometry" />
        </mxCell>
        <mxCell id="MMhZ7FCfE5tmJCxdhU5A-24" value="CEF" style="text;html=1;strokeColor=none;fillColor=none;align=center;verticalAlign=middle;whiteSpace=wrap;rounded=0;fontSize=16;fontStyle=1" vertex="1" parent="1">
          <mxGeometry x="1080" y="452.5" width="100" height="30" as="geometry" />
        </mxCell>
        <mxCell id="MMhZ7FCfE5tmJCxdhU5A-25" value="FORWARDING ENGINE" style="text;html=1;strokeColor=none;fillColor=none;align=center;verticalAlign=middle;whiteSpace=wrap;rounded=0;fontSize=16;fontStyle=1" vertex="1" parent="1">
          <mxGeometry x="1040" y="100" width="190" height="30" as="geometry" />
        </mxCell>
        <mxCell id="MMhZ7FCfE5tmJCxdhU5A-30" value="" style="rounded=0;whiteSpace=wrap;html=1;strokeWidth=4;" vertex="1" parent="1">
          <mxGeometry x="1397" y="69" width="120" height="485" as="geometry" />
        </mxCell>
        <mxCell id="MMhZ7FCfE5tmJCxdhU5A-31" value="SWITCH FABRIC" style="text;html=1;strokeColor=none;fillColor=none;align=center;verticalAlign=middle;whiteSpace=wrap;rounded=0;fontSize=16;fontStyle=1;rotation=-90;" vertex="1" parent="1">
          <mxGeometry x="1372" y="279" width="170" height="30" as="geometry" />
        </mxCell>
        <mxCell id="MMhZ7FCfE5tmJCxdhU5A-32" value="" style="endArrow=classic;html=1;rounded=0;strokeWidth=4;fillColor=#647687;strokeColor=#314354;" edge="1" parent="1">
          <mxGeometry width="50" height="50" relative="1" as="geometry">
            <mxPoint x="907" y="185" as="sourcePoint" />
            <mxPoint x="1007" y="185" as="targetPoint" />
          </mxGeometry>
        </mxCell>
        <mxCell id="MMhZ7FCfE5tmJCxdhU5A-33" value="" style="endArrow=none;html=1;rounded=0;strokeWidth=4;fillColor=#647687;strokeColor=#314354;startArrow=classic;startFill=1;endFill=0;" edge="1" parent="1">
          <mxGeometry width="50" height="50" relative="1" as="geometry">
            <mxPoint x="906" y="435" as="sourcePoint" />
            <mxPoint x="1006" y="435" as="targetPoint" />
          </mxGeometry>
        </mxCell>
        <mxCell id="MMhZ7FCfE5tmJCxdhU5A-34" value="" style="endArrow=classic;html=1;rounded=0;strokeWidth=4;fillColor=#647687;strokeColor=#314354;dashed=1;" edge="1" parent="1">
          <mxGeometry width="50" height="50" relative="1" as="geometry">
            <mxPoint x="1257" y="154" as="sourcePoint" />
            <mxPoint x="1252" y="474" as="targetPoint" />
            <Array as="points">
              <mxPoint x="1492" y="154" />
              <mxPoint x="1492" y="474" />
            </Array>
          </mxGeometry>
        </mxCell>
        <mxCell id="MMhZ7FCfE5tmJCxdhU5A-36" value="EGRESS LINE CARD" style="text;html=1;strokeColor=none;fillColor=none;align=center;verticalAlign=middle;whiteSpace=wrap;rounded=0;fontSize=16;fontStyle=1" vertex="1" parent="1">
          <mxGeometry x="1040" y="522" width="190" height="30" as="geometry" />
        </mxCell>
        <mxCell id="MMhZ7FCfE5tmJCxdhU5A-37" value="INGRESS LINE CARD" style="text;html=1;strokeColor=none;fillColor=none;align=center;verticalAlign=middle;whiteSpace=wrap;rounded=0;fontSize=16;fontStyle=1" vertex="1" parent="1">
          <mxGeometry x="1040" y="267.5" width="190" height="30" as="geometry" />
        </mxCell>
        <mxCell id="MMhZ7FCfE5tmJCxdhU5A-38" value="" style="rounded=0;whiteSpace=wrap;html=1;strokeWidth=4;dashed=1;" vertex="1" parent="1">
          <mxGeometry x="1554" y="198.5" width="200" height="178.5" as="geometry" />
        </mxCell>
        <mxCell id="MMhZ7FCfE5tmJCxdhU5A-39" value="ROUTE PROCESSOR ENGINE" style="text;html=1;strokeColor=none;fillColor=none;align=center;verticalAlign=middle;whiteSpace=wrap;rounded=0;fontSize=16;fontStyle=1" vertex="1" parent="1">
          <mxGeometry x="1574" y="267" width="160" height="30" as="geometry" />
        </mxCell>
        <mxCell id="MMhZ7FCfE5tmJCxdhU5A-42" value="ARQUITETURA CENTRALIZADA" style="text;html=1;strokeColor=none;fillColor=none;align=center;verticalAlign=middle;whiteSpace=wrap;rounded=0;fontSize=16;fontStyle=1" vertex="1" parent="1">
          <mxGeometry x="356" y="660" width="284" height="30" as="geometry" />
        </mxCell>
        <mxCell id="MMhZ7FCfE5tmJCxdhU5A-43" value="ARQUITETURA DISTRIBUIDA" style="text;html=1;strokeColor=none;fillColor=none;align=center;verticalAlign=middle;whiteSpace=wrap;rounded=0;fontSize=16;fontStyle=1" vertex="1" parent="1">
          <mxGeometry x="1088" y="650" width="284" height="30" as="geometry" />
        </mxCell>
      </root>
    </mxGraphModel>
  </diagram>
</mxfile>
